<?xml version="1.0" encoding="UTF-8"?>
<svg version="1.1" xmlns="http://www.w3.org/2000/svg" width="32" height="32">
<path d="M0 0 C10.56 0 21.12 0 32 0 C32 10.56 32 21.12 32 32 C21.44 32 10.88 32 0 32 C0 21.44 0 10.88 0 0 Z " fill="#010100" transform="translate(0,0)"/>
<path d="M0 0 C3.63 0 7.26 0 11 0 C11 0.66 11 1.32 11 2 C10.01 2 9.02 2 8 2 C8 4.97 8 7.94 8 11 C11.96 11 15.92 11 20 11 C20 8.03 20 5.06 20 2 C19.01 2 18.02 2 17 2 C17 1.34 17 0.68 17 0 C20.63 0 24.26 0 28 0 C28 0.66 28 1.32 28 2 C27.01 2.33 26.02 2.66 25 3 C25 9.6 25 16.2 25 23 C25.99 23.33 26.98 23.66 28 24 C28 24.66 28 25.32 28 26 C24.37 26 20.74 26 17 26 C17 25.34 17 24.68 17 24 C17.99 24 18.98 24 20 24 C20 20.37 20 16.74 20 13 C16.04 13 12.08 13 8 13 C8 16.63 8 20.26 8 24 C8.99 24 9.98 24 11 24 C11 24.66 11 25.32 11 26 C7.37 26 3.74 26 0 26 C0 25.34 0 24.68 0 24 C0.99 23.67 1.98 23.34 3 23 C3 16.4 3 9.8 3 3 C2.01 2.67 1.02 2.34 0 2 C0 1.34 0 0.68 0 0 Z " fill="#359B9C" transform="translate(2,3)"/>
<path d="M0 0 C3.63 0 7.26 0 11 0 C11 0.66 11 1.32 11 2 C10.01 2.33 9.02 2.66 8 3 C7.67 5.97 7.34 8.94 7 12 C11.29 12 15.58 12 20 12 C20 12.33 20 12.66 20 13 C16.04 13 12.08 13 8 13 C8 16.63 8 20.26 8 24 C8.99 24 9.98 24 11 24 C11 24.66 11 25.32 11 26 C7.37 26 3.74 26 0 26 C0 25.34 0 24.68 0 24 C0.99 23.67 1.98 23.34 3 23 C3 16.4 3 9.8 3 3 C2.01 2.67 1.02 2.34 0 2 C0 1.34 0 0.68 0 0 Z " fill="#31A5A6" transform="translate(2,3)"/>
</svg>
